<mxfile host="app.diagrams.net" modified="2024-04-11T13:23:28.712Z" agent="Mozilla/5.0 (X11; Linux x86_64; rv:121.0) Gecko/20100101 Firefox/121.0" etag="-5bkCwJMUdcPvR_BZZ9R" version="24.2.3" type="device">
  <diagram name="Page-1" id="OdZcB8VeIf5t8aZ7XApL">
    <mxGraphModel dx="1195" dy="592" grid="0" gridSize="10" guides="1" tooltips="1" connect="1" arrows="1" fold="1" page="1" pageScale="1" pageWidth="1654" pageHeight="2336" math="0" shadow="0">
      <root>
        <mxCell id="0" />
        <mxCell id="1" parent="0" />
        <mxCell id="NXXbfyBp3kHqgqcvMXdh-1" value="" style="childLayout=tableLayout;recursiveResize=0;shadow=0;fillColor=none;" vertex="1" parent="1">
          <mxGeometry x="195" y="150" width="240" height="137" as="geometry" />
        </mxCell>
        <mxCell id="NXXbfyBp3kHqgqcvMXdh-2" value="" style="shape=tableRow;horizontal=0;startSize=0;swimlaneHead=0;swimlaneBody=0;top=0;left=0;bottom=0;right=0;dropTarget=0;collapsible=0;recursiveResize=0;expand=0;fontStyle=0;fillColor=none;strokeColor=inherit;" vertex="1" parent="NXXbfyBp3kHqgqcvMXdh-1">
          <mxGeometry width="240" height="47" as="geometry" />
        </mxCell>
        <mxCell id="NXXbfyBp3kHqgqcvMXdh-3" value="KPr(0)" style="connectable=0;recursiveResize=0;strokeColor=inherit;fillColor=none;align=center;whiteSpace=wrap;html=1;" vertex="1" parent="NXXbfyBp3kHqgqcvMXdh-2">
          <mxGeometry width="60" height="47" as="geometry">
            <mxRectangle width="60" height="47" as="alternateBounds" />
          </mxGeometry>
        </mxCell>
        <mxCell id="NXXbfyBp3kHqgqcvMXdh-4" value="KPr(1)" style="connectable=0;recursiveResize=0;strokeColor=inherit;fillColor=none;align=center;whiteSpace=wrap;html=1;" vertex="1" parent="NXXbfyBp3kHqgqcvMXdh-2">
          <mxGeometry x="60" width="60" height="47" as="geometry">
            <mxRectangle width="60" height="47" as="alternateBounds" />
          </mxGeometry>
        </mxCell>
        <mxCell id="NXXbfyBp3kHqgqcvMXdh-5" value="KPr(2)" style="connectable=0;recursiveResize=0;strokeColor=inherit;fillColor=none;align=center;whiteSpace=wrap;html=1;" vertex="1" parent="NXXbfyBp3kHqgqcvMXdh-2">
          <mxGeometry x="120" width="60" height="47" as="geometry">
            <mxRectangle width="60" height="47" as="alternateBounds" />
          </mxGeometry>
        </mxCell>
        <mxCell id="NXXbfyBp3kHqgqcvMXdh-22" value="KPr(n)" style="connectable=0;recursiveResize=0;strokeColor=inherit;fillColor=none;align=center;whiteSpace=wrap;html=1;" vertex="1" parent="NXXbfyBp3kHqgqcvMXdh-2">
          <mxGeometry x="180" width="60" height="47" as="geometry">
            <mxRectangle width="60" height="47" as="alternateBounds" />
          </mxGeometry>
        </mxCell>
        <mxCell id="NXXbfyBp3kHqgqcvMXdh-6" style="shape=tableRow;horizontal=0;startSize=0;swimlaneHead=0;swimlaneBody=0;top=0;left=0;bottom=0;right=0;dropTarget=0;collapsible=0;recursiveResize=0;expand=0;fontStyle=0;fillColor=none;strokeColor=inherit;" vertex="1" parent="NXXbfyBp3kHqgqcvMXdh-1">
          <mxGeometry y="47" width="240" height="43" as="geometry" />
        </mxCell>
        <mxCell id="NXXbfyBp3kHqgqcvMXdh-7" value="KPr(0)" style="connectable=0;recursiveResize=0;strokeColor=inherit;fillColor=none;align=center;whiteSpace=wrap;html=1;" vertex="1" parent="NXXbfyBp3kHqgqcvMXdh-6">
          <mxGeometry width="60" height="43" as="geometry">
            <mxRectangle width="60" height="43" as="alternateBounds" />
          </mxGeometry>
        </mxCell>
        <mxCell id="NXXbfyBp3kHqgqcvMXdh-8" value="KPr(1)" style="connectable=0;recursiveResize=0;strokeColor=inherit;fillColor=none;align=center;whiteSpace=wrap;html=1;" vertex="1" parent="NXXbfyBp3kHqgqcvMXdh-6">
          <mxGeometry x="60" width="60" height="43" as="geometry">
            <mxRectangle width="60" height="43" as="alternateBounds" />
          </mxGeometry>
        </mxCell>
        <mxCell id="NXXbfyBp3kHqgqcvMXdh-9" value="KPr(2)" style="connectable=0;recursiveResize=0;strokeColor=inherit;fillColor=none;align=center;whiteSpace=wrap;html=1;" vertex="1" parent="NXXbfyBp3kHqgqcvMXdh-6">
          <mxGeometry x="120" width="60" height="43" as="geometry">
            <mxRectangle width="60" height="43" as="alternateBounds" />
          </mxGeometry>
        </mxCell>
        <mxCell id="NXXbfyBp3kHqgqcvMXdh-23" value="KPr(n)" style="connectable=0;recursiveResize=0;strokeColor=inherit;fillColor=none;align=center;whiteSpace=wrap;html=1;" vertex="1" parent="NXXbfyBp3kHqgqcvMXdh-6">
          <mxGeometry x="180" width="60" height="43" as="geometry">
            <mxRectangle width="60" height="43" as="alternateBounds" />
          </mxGeometry>
        </mxCell>
        <mxCell id="NXXbfyBp3kHqgqcvMXdh-10" style="shape=tableRow;horizontal=0;startSize=0;swimlaneHead=0;swimlaneBody=0;top=0;left=0;bottom=0;right=0;dropTarget=0;collapsible=0;recursiveResize=0;expand=0;fontStyle=0;fillColor=none;strokeColor=inherit;" vertex="1" parent="NXXbfyBp3kHqgqcvMXdh-1">
          <mxGeometry y="90" width="240" height="47" as="geometry" />
        </mxCell>
        <mxCell id="NXXbfyBp3kHqgqcvMXdh-11" value="KPr(0)" style="connectable=0;recursiveResize=0;strokeColor=inherit;fillColor=none;align=center;whiteSpace=wrap;html=1;" vertex="1" parent="NXXbfyBp3kHqgqcvMXdh-10">
          <mxGeometry width="60" height="47" as="geometry">
            <mxRectangle width="60" height="47" as="alternateBounds" />
          </mxGeometry>
        </mxCell>
        <mxCell id="NXXbfyBp3kHqgqcvMXdh-12" value="KPr(1)" style="connectable=0;recursiveResize=0;strokeColor=inherit;fillColor=none;align=center;whiteSpace=wrap;html=1;" vertex="1" parent="NXXbfyBp3kHqgqcvMXdh-10">
          <mxGeometry x="60" width="60" height="47" as="geometry">
            <mxRectangle width="60" height="47" as="alternateBounds" />
          </mxGeometry>
        </mxCell>
        <mxCell id="NXXbfyBp3kHqgqcvMXdh-13" value="KPr(2)" style="connectable=0;recursiveResize=0;strokeColor=inherit;fillColor=none;align=center;whiteSpace=wrap;html=1;" vertex="1" parent="NXXbfyBp3kHqgqcvMXdh-10">
          <mxGeometry x="120" width="60" height="47" as="geometry">
            <mxRectangle width="60" height="47" as="alternateBounds" />
          </mxGeometry>
        </mxCell>
        <mxCell id="NXXbfyBp3kHqgqcvMXdh-24" value="KPr(n)" style="connectable=0;recursiveResize=0;strokeColor=inherit;fillColor=none;align=center;whiteSpace=wrap;html=1;" vertex="1" parent="NXXbfyBp3kHqgqcvMXdh-10">
          <mxGeometry x="180" width="60" height="47" as="geometry">
            <mxRectangle width="60" height="47" as="alternateBounds" />
          </mxGeometry>
        </mxCell>
        <mxCell id="NXXbfyBp3kHqgqcvMXdh-33" style="edgeStyle=orthogonalEdgeStyle;rounded=0;orthogonalLoop=1;jettySize=auto;html=1;exitX=1;exitY=0.5;exitDx=0;exitDy=0;" edge="1" parent="1" source="NXXbfyBp3kHqgqcvMXdh-27" target="NXXbfyBp3kHqgqcvMXdh-41">
          <mxGeometry relative="1" as="geometry">
            <mxPoint x="125" y="219" as="targetPoint" />
          </mxGeometry>
        </mxCell>
        <mxCell id="NXXbfyBp3kHqgqcvMXdh-27" value="" style="whiteSpace=wrap;html=1;aspect=fixed;" vertex="1" parent="1">
          <mxGeometry x="35" y="213.5" width="10" height="10" as="geometry" />
        </mxCell>
        <mxCell id="NXXbfyBp3kHqgqcvMXdh-30" value="Vcandidates[ ]" style="text;html=1;align=center;verticalAlign=middle;whiteSpace=wrap;rounded=0;" vertex="1" parent="1">
          <mxGeometry x="10" y="183.5" width="85" height="30" as="geometry" />
        </mxCell>
        <mxCell id="NXXbfyBp3kHqgqcvMXdh-40" value="" style="shape=curlyBracket;whiteSpace=wrap;html=1;rounded=1;labelPosition=left;verticalLabelPosition=middle;align=right;verticalAlign=middle;" vertex="1" parent="1">
          <mxGeometry x="165" y="150" width="20" height="137" as="geometry" />
        </mxCell>
        <mxCell id="NXXbfyBp3kHqgqcvMXdh-41" value="Nrows" style="text;html=1;align=center;verticalAlign=middle;whiteSpace=wrap;rounded=0;" vertex="1" parent="1">
          <mxGeometry x="115" y="203.5" width="60" height="30" as="geometry" />
        </mxCell>
        <mxCell id="NXXbfyBp3kHqgqcvMXdh-42" value="" style="endArrow=classic;html=1;rounded=0;" edge="1" parent="1">
          <mxGeometry width="50" height="50" relative="1" as="geometry">
            <mxPoint x="450" y="180" as="sourcePoint" />
            <mxPoint x="510" y="180" as="targetPoint" />
          </mxGeometry>
        </mxCell>
        <mxCell id="NXXbfyBp3kHqgqcvMXdh-43" value="" style="endArrow=classic;html=1;rounded=0;" edge="1" parent="1">
          <mxGeometry width="50" height="50" relative="1" as="geometry">
            <mxPoint x="450" y="218.16" as="sourcePoint" />
            <mxPoint x="510" y="218.16" as="targetPoint" />
          </mxGeometry>
        </mxCell>
        <mxCell id="NXXbfyBp3kHqgqcvMXdh-44" value="" style="endArrow=classic;html=1;rounded=0;" edge="1" parent="1">
          <mxGeometry width="50" height="50" relative="1" as="geometry">
            <mxPoint x="450" y="260" as="sourcePoint" />
            <mxPoint x="510" y="260" as="targetPoint" />
          </mxGeometry>
        </mxCell>
        <mxCell id="NXXbfyBp3kHqgqcvMXdh-45" value="" style="endArrow=none;dashed=1;html=1;dashPattern=1 3;strokeWidth=2;rounded=0;" edge="1" parent="1">
          <mxGeometry width="50" height="50" relative="1" as="geometry">
            <mxPoint x="480" y="260" as="sourcePoint" />
            <mxPoint x="480" y="90" as="targetPoint" />
          </mxGeometry>
        </mxCell>
        <mxCell id="NXXbfyBp3kHqgqcvMXdh-46" value="calculate distance()" style="text;html=1;align=center;verticalAlign=middle;whiteSpace=wrap;rounded=0;" vertex="1" parent="1">
          <mxGeometry x="420" y="60" width="125" height="30" as="geometry" />
        </mxCell>
        <mxCell id="NXXbfyBp3kHqgqcvMXdh-47" value="GPU-Algoritm" style="shape=hexagon;perimeter=hexagonPerimeter2;whiteSpace=wrap;html=1;fixedSize=1;strokeColor=#66FF66;" vertex="1" parent="1">
          <mxGeometry x="540" y="60" width="90" height="30" as="geometry" />
        </mxCell>
        <mxCell id="NXXbfyBp3kHqgqcvMXdh-54" value="" style="childLayout=tableLayout;recursiveResize=0;shadow=0;fillColor=none;" vertex="1" parent="1">
          <mxGeometry x="530" y="155.5" width="150" height="131.5" as="geometry" />
        </mxCell>
        <mxCell id="NXXbfyBp3kHqgqcvMXdh-55" value="" style="shape=tableRow;horizontal=0;startSize=0;swimlaneHead=0;swimlaneBody=0;top=0;left=0;bottom=0;right=0;dropTarget=0;collapsible=0;recursiveResize=0;expand=0;fontStyle=0;fillColor=none;strokeColor=inherit;" vertex="1" parent="NXXbfyBp3kHqgqcvMXdh-54">
          <mxGeometry width="150" height="44" as="geometry" />
        </mxCell>
        <mxCell id="NXXbfyBp3kHqgqcvMXdh-56" value="&lt;div&gt;Distance&lt;/div&gt;&lt;div&gt;KPr(0)&lt;br&gt;&lt;/div&gt;" style="connectable=0;recursiveResize=0;strokeColor=inherit;fillColor=none;align=center;whiteSpace=wrap;html=1;" vertex="1" parent="NXXbfyBp3kHqgqcvMXdh-55">
          <mxGeometry width="49" height="44" as="geometry">
            <mxRectangle width="49" height="44" as="alternateBounds" />
          </mxGeometry>
        </mxCell>
        <mxCell id="NXXbfyBp3kHqgqcvMXdh-57" value="&lt;div&gt;Distance&lt;/div&gt;&lt;div&gt;KPr(1)&lt;br&gt;&lt;/div&gt;" style="connectable=0;recursiveResize=0;strokeColor=inherit;fillColor=none;align=center;whiteSpace=wrap;html=1;" vertex="1" parent="NXXbfyBp3kHqgqcvMXdh-55">
          <mxGeometry x="49" width="52" height="44" as="geometry">
            <mxRectangle width="52" height="44" as="alternateBounds" />
          </mxGeometry>
        </mxCell>
        <mxCell id="NXXbfyBp3kHqgqcvMXdh-58" value="&lt;div&gt;Distance&lt;/div&gt;&lt;div&gt;KPr(n)&lt;br&gt;&lt;/div&gt;" style="connectable=0;recursiveResize=0;strokeColor=inherit;fillColor=none;align=center;whiteSpace=wrap;html=1;" vertex="1" parent="NXXbfyBp3kHqgqcvMXdh-55">
          <mxGeometry x="101" width="49" height="44" as="geometry">
            <mxRectangle width="49" height="44" as="alternateBounds" />
          </mxGeometry>
        </mxCell>
        <mxCell id="NXXbfyBp3kHqgqcvMXdh-59" style="shape=tableRow;horizontal=0;startSize=0;swimlaneHead=0;swimlaneBody=0;top=0;left=0;bottom=0;right=0;dropTarget=0;collapsible=0;recursiveResize=0;expand=0;fontStyle=0;fillColor=none;strokeColor=inherit;" vertex="1" parent="NXXbfyBp3kHqgqcvMXdh-54">
          <mxGeometry y="44" width="150" height="42" as="geometry" />
        </mxCell>
        <mxCell id="NXXbfyBp3kHqgqcvMXdh-60" value="&lt;div&gt;Distance&lt;/div&gt;&lt;div&gt;KPr(0)&lt;br&gt;&lt;/div&gt;" style="connectable=0;recursiveResize=0;strokeColor=inherit;fillColor=none;align=center;whiteSpace=wrap;html=1;" vertex="1" parent="NXXbfyBp3kHqgqcvMXdh-59">
          <mxGeometry width="49" height="42" as="geometry">
            <mxRectangle width="49" height="42" as="alternateBounds" />
          </mxGeometry>
        </mxCell>
        <mxCell id="NXXbfyBp3kHqgqcvMXdh-61" value="&lt;div&gt;Distance&lt;/div&gt;&lt;div&gt;KPr(1)&lt;br&gt;&lt;/div&gt;" style="connectable=0;recursiveResize=0;strokeColor=inherit;fillColor=none;align=center;whiteSpace=wrap;html=1;" vertex="1" parent="NXXbfyBp3kHqgqcvMXdh-59">
          <mxGeometry x="49" width="52" height="42" as="geometry">
            <mxRectangle width="52" height="42" as="alternateBounds" />
          </mxGeometry>
        </mxCell>
        <mxCell id="NXXbfyBp3kHqgqcvMXdh-62" value="&lt;div&gt;Distance&lt;/div&gt;&lt;div&gt;KPr(n)&lt;br&gt;&lt;/div&gt;" style="connectable=0;recursiveResize=0;strokeColor=inherit;fillColor=none;align=center;whiteSpace=wrap;html=1;" vertex="1" parent="NXXbfyBp3kHqgqcvMXdh-59">
          <mxGeometry x="101" width="49" height="42" as="geometry">
            <mxRectangle width="49" height="42" as="alternateBounds" />
          </mxGeometry>
        </mxCell>
        <mxCell id="NXXbfyBp3kHqgqcvMXdh-63" style="shape=tableRow;horizontal=0;startSize=0;swimlaneHead=0;swimlaneBody=0;top=0;left=0;bottom=0;right=0;dropTarget=0;collapsible=0;recursiveResize=0;expand=0;fontStyle=0;fillColor=none;strokeColor=inherit;" vertex="1" parent="NXXbfyBp3kHqgqcvMXdh-54">
          <mxGeometry y="86" width="150" height="46" as="geometry" />
        </mxCell>
        <mxCell id="NXXbfyBp3kHqgqcvMXdh-64" value="&lt;div&gt;Distance&lt;/div&gt;&lt;div&gt;KPr(0)&lt;br&gt;&lt;/div&gt;" style="connectable=0;recursiveResize=0;strokeColor=inherit;fillColor=none;align=center;whiteSpace=wrap;html=1;" vertex="1" parent="NXXbfyBp3kHqgqcvMXdh-63">
          <mxGeometry width="49" height="46" as="geometry">
            <mxRectangle width="49" height="46" as="alternateBounds" />
          </mxGeometry>
        </mxCell>
        <mxCell id="NXXbfyBp3kHqgqcvMXdh-65" value="&lt;div&gt;Distance&lt;/div&gt;&lt;div&gt;KPr(1)&lt;br&gt;&lt;/div&gt;" style="connectable=0;recursiveResize=0;strokeColor=inherit;fillColor=none;align=center;whiteSpace=wrap;html=1;" vertex="1" parent="NXXbfyBp3kHqgqcvMXdh-63">
          <mxGeometry x="49" width="52" height="46" as="geometry">
            <mxRectangle width="52" height="46" as="alternateBounds" />
          </mxGeometry>
        </mxCell>
        <mxCell id="NXXbfyBp3kHqgqcvMXdh-66" value="&lt;div&gt;Distance&lt;/div&gt;&lt;div&gt;KPr(n)&lt;br&gt;&lt;/div&gt;" style="connectable=0;recursiveResize=0;strokeColor=inherit;fillColor=none;align=center;whiteSpace=wrap;html=1;" vertex="1" parent="NXXbfyBp3kHqgqcvMXdh-63">
          <mxGeometry x="101" width="49" height="46" as="geometry">
            <mxRectangle width="49" height="46" as="alternateBounds" />
          </mxGeometry>
        </mxCell>
        <mxCell id="NXXbfyBp3kHqgqcvMXdh-71" value="" style="endArrow=classic;html=1;rounded=0;" edge="1" parent="1">
          <mxGeometry width="50" height="50" relative="1" as="geometry">
            <mxPoint x="710" y="180" as="sourcePoint" />
            <mxPoint x="770" y="180" as="targetPoint" />
          </mxGeometry>
        </mxCell>
        <mxCell id="NXXbfyBp3kHqgqcvMXdh-72" value="" style="endArrow=classic;html=1;rounded=0;" edge="1" parent="1">
          <mxGeometry width="50" height="50" relative="1" as="geometry">
            <mxPoint x="710" y="218.16" as="sourcePoint" />
            <mxPoint x="770" y="218.16" as="targetPoint" />
          </mxGeometry>
        </mxCell>
        <mxCell id="NXXbfyBp3kHqgqcvMXdh-73" value="" style="endArrow=classic;html=1;rounded=0;" edge="1" parent="1">
          <mxGeometry width="50" height="50" relative="1" as="geometry">
            <mxPoint x="710" y="260" as="sourcePoint" />
            <mxPoint x="770" y="260" as="targetPoint" />
          </mxGeometry>
        </mxCell>
        <mxCell id="NXXbfyBp3kHqgqcvMXdh-74" value="" style="endArrow=none;dashed=1;html=1;dashPattern=1 3;strokeWidth=2;rounded=0;" edge="1" parent="1">
          <mxGeometry width="50" height="50" relative="1" as="geometry">
            <mxPoint x="740" y="260" as="sourcePoint" />
            <mxPoint x="740" y="90" as="targetPoint" />
          </mxGeometry>
        </mxCell>
        <mxCell id="NXXbfyBp3kHqgqcvMXdh-75" value="find minium distance()" style="text;html=1;align=center;verticalAlign=middle;whiteSpace=wrap;rounded=0;" vertex="1" parent="1">
          <mxGeometry x="680" y="60" width="125" height="30" as="geometry" />
        </mxCell>
        <mxCell id="NXXbfyBp3kHqgqcvMXdh-76" value="GPU-Algoritm" style="shape=hexagon;perimeter=hexagonPerimeter2;whiteSpace=wrap;html=1;fixedSize=1;strokeColor=#66FF66;" vertex="1" parent="1">
          <mxGeometry x="805" y="60" width="90" height="30" as="geometry" />
        </mxCell>
        <mxCell id="NXXbfyBp3kHqgqcvMXdh-77" value="" style="childLayout=tableLayout;recursiveResize=0;shadow=0;fillColor=none;" vertex="1" parent="1">
          <mxGeometry x="791.25" y="160" width="88.75" height="120" as="geometry" />
        </mxCell>
        <mxCell id="NXXbfyBp3kHqgqcvMXdh-78" value="" style="shape=tableRow;horizontal=0;startSize=0;swimlaneHead=0;swimlaneBody=0;top=0;left=0;bottom=0;right=0;dropTarget=0;collapsible=0;recursiveResize=0;expand=0;fontStyle=0;fillColor=none;strokeColor=inherit;" vertex="1" parent="NXXbfyBp3kHqgqcvMXdh-77">
          <mxGeometry width="88.75" height="40" as="geometry" />
        </mxCell>
        <mxCell id="NXXbfyBp3kHqgqcvMXdh-79" value="Min-dist(0)" style="connectable=0;recursiveResize=0;strokeColor=inherit;fillColor=none;align=center;whiteSpace=wrap;html=1;" vertex="1" parent="NXXbfyBp3kHqgqcvMXdh-78">
          <mxGeometry width="89" height="40" as="geometry">
            <mxRectangle width="89" height="40" as="alternateBounds" />
          </mxGeometry>
        </mxCell>
        <mxCell id="NXXbfyBp3kHqgqcvMXdh-82" style="shape=tableRow;horizontal=0;startSize=0;swimlaneHead=0;swimlaneBody=0;top=0;left=0;bottom=0;right=0;dropTarget=0;collapsible=0;recursiveResize=0;expand=0;fontStyle=0;fillColor=none;strokeColor=inherit;" vertex="1" parent="NXXbfyBp3kHqgqcvMXdh-77">
          <mxGeometry y="40" width="88.75" height="39" as="geometry" />
        </mxCell>
        <mxCell id="NXXbfyBp3kHqgqcvMXdh-83" value="Min-dist(1)" style="connectable=0;recursiveResize=0;strokeColor=inherit;fillColor=none;align=center;whiteSpace=wrap;html=1;" vertex="1" parent="NXXbfyBp3kHqgqcvMXdh-82">
          <mxGeometry width="89" height="39" as="geometry">
            <mxRectangle width="89" height="39" as="alternateBounds" />
          </mxGeometry>
        </mxCell>
        <mxCell id="NXXbfyBp3kHqgqcvMXdh-86" style="shape=tableRow;horizontal=0;startSize=0;swimlaneHead=0;swimlaneBody=0;top=0;left=0;bottom=0;right=0;dropTarget=0;collapsible=0;recursiveResize=0;expand=0;fontStyle=0;fillColor=none;strokeColor=inherit;" vertex="1" parent="NXXbfyBp3kHqgqcvMXdh-77">
          <mxGeometry y="79" width="88.75" height="41" as="geometry" />
        </mxCell>
        <mxCell id="NXXbfyBp3kHqgqcvMXdh-87" value="Min-dist(Nrows)" style="connectable=0;recursiveResize=0;strokeColor=inherit;fillColor=none;align=center;whiteSpace=wrap;html=1;" vertex="1" parent="NXXbfyBp3kHqgqcvMXdh-86">
          <mxGeometry width="89" height="41" as="geometry">
            <mxRectangle width="89" height="41" as="alternateBounds" />
          </mxGeometry>
        </mxCell>
        <mxCell id="NXXbfyBp3kHqgqcvMXdh-90" value="" style="endArrow=classic;html=1;rounded=0;" edge="1" parent="1">
          <mxGeometry width="50" height="50" relative="1" as="geometry">
            <mxPoint x="840" y="300" as="sourcePoint" />
            <mxPoint x="840" y="340" as="targetPoint" />
          </mxGeometry>
        </mxCell>
        <mxCell id="NXXbfyBp3kHqgqcvMXdh-91" value="sort()" style="text;html=1;align=center;verticalAlign=middle;whiteSpace=wrap;rounded=0;" vertex="1" parent="1">
          <mxGeometry x="805" y="300" width="125" height="30" as="geometry" />
        </mxCell>
        <mxCell id="NXXbfyBp3kHqgqcvMXdh-92" value="" style="childLayout=tableLayout;recursiveResize=0;shadow=0;fillColor=none;" vertex="1" parent="1">
          <mxGeometry x="760" y="360" width="200" height="40" as="geometry" />
        </mxCell>
        <mxCell id="NXXbfyBp3kHqgqcvMXdh-114" style="shape=tableRow;horizontal=0;startSize=0;swimlaneHead=0;swimlaneBody=0;top=0;left=0;bottom=0;right=0;dropTarget=0;collapsible=0;recursiveResize=0;expand=0;fontStyle=0;fillColor=none;strokeColor=inherit;" vertex="1" parent="NXXbfyBp3kHqgqcvMXdh-92">
          <mxGeometry width="200" height="40" as="geometry" />
        </mxCell>
        <mxCell id="NXXbfyBp3kHqgqcvMXdh-115" value="Min-dist(0)" style="connectable=0;recursiveResize=0;strokeColor=inherit;fillColor=none;align=center;whiteSpace=wrap;html=1;" vertex="1" parent="NXXbfyBp3kHqgqcvMXdh-114">
          <mxGeometry width="67" height="40" as="geometry">
            <mxRectangle width="67" height="40" as="alternateBounds" />
          </mxGeometry>
        </mxCell>
        <mxCell id="NXXbfyBp3kHqgqcvMXdh-120" value="Min-dist(1)" style="connectable=0;recursiveResize=0;strokeColor=inherit;fillColor=none;align=center;whiteSpace=wrap;html=1;" vertex="1" parent="NXXbfyBp3kHqgqcvMXdh-114">
          <mxGeometry x="67" width="67" height="40" as="geometry">
            <mxRectangle width="67" height="40" as="alternateBounds" />
          </mxGeometry>
        </mxCell>
        <mxCell id="NXXbfyBp3kHqgqcvMXdh-121" value="Min-dist(Nrows)" style="connectable=0;recursiveResize=0;strokeColor=inherit;fillColor=none;align=center;whiteSpace=wrap;html=1;" vertex="1" parent="NXXbfyBp3kHqgqcvMXdh-114">
          <mxGeometry x="134" width="66" height="40" as="geometry">
            <mxRectangle width="66" height="40" as="alternateBounds" />
          </mxGeometry>
        </mxCell>
      </root>
    </mxGraphModel>
  </diagram>
</mxfile>
